<svg version="1.2" xmlns="http://www.w3.org/2000/svg" viewBox="0 0 140 109" width="140" height="109"><style>.a{fill:none;stroke:#000;stroke-linecap:round;stroke-linejoin:round}.b{opacity:.3}</style><path class="a" d="m97.1 86.6v9.6c0 6.2-5 11.3-11.3 11.3h-37.1c-6.3 0-11.4-5.1-11.4-11.3v-82.4c0-6.2 5.1-11.3 11.4-11.3h37.1c6.3 0 11.3 5.1 11.3 11.3v22.1"/><path fill-rule="evenodd" class="a" d="m37.3 14v-0.2c0-6.2 5.1-11.3 11.4-11.3h37.1c6.3 0 11.3 5.1 11.3 11.3v0.2z"/><path class="b" d="m37.2 14v-0.2c0-6.2 5-11.3 11.3-11.3h37.2c6.2 0 11.3 5.1 11.3 11.3v0.2z"/><path fill-rule="evenodd" class="a" d="m97.1 96v0.2c0 6.2-5 11.3-11.3 11.3h-37.1c-6.3 0-11.4-5.1-11.4-11.3v-0.2z"/><path class="b" d="m97.1 96v0.2c0 6.2-5 11.3-11.3 11.3h-37.1c-6.3 0-11.4-5.1-11.4-11.3v-0.2z"/><path class="a" d="m61.9 102.4h10.6"/><path class="a" d="m61.9 8.3h10.6"/><path class="a" d="m7.5 32.5v11.2"/><path class="a" d="m13.8 38.1h-12.5"/><path class="a" d="m21.2 59.8v7.5"/><path class="a" d="m24.9 63.5h-7.4"/><path fill-rule="evenodd" class="a" d="m133.9 65.1l4.4 1.4-3.7 9.6-4.6-1.9c-1.6 2.4-3.7 4.5-5.9 6.2l2 4.7-8.7 3.7-2-4.7c-4 1.1-6.2 0.9-9 0.4l-2.2 4.8-9.5-3.6 1.9-4.5c-2.7-1.8-5-3.9-6.8-6.8l-4.3 1.8-4.1-9.3 4.9-2.1c-0.4-2.7-0.4-5.2 0-7.5l-4.7-2.3 3.8-9.5 4.9 1.7c1.5-2.3 2.9-4.1 6.3-6.3l-1.7-4.1 8.6-3.7 1.8 4c2.7-0.5 5.8-0.5 8.6-0.1l1.8-4.5 9.5 3.8-1.7 4.9c2 1.3 3.7 2.9 5.4 5.1l4.6-1.9 4 9.3-4 1.7c0.9 3.3 0.9 6.4 0.4 9.7zm-10.3-10.3c-3.3-7.7-12.3-11.3-20-7.9-7.7 3.3-11.2 12.3-7.8 20 3.3 7.7 12.2 11.2 19.9 7.9 7.7-3.4 11.3-12.3 7.9-20z"/><path fill-rule="evenodd" class="b" d="m134 65.1l4.5 1.5-3.8 9.5-4.6-1.8c-1.6 2.4-3.7 4.5-5.9 6.2l2 4.7-8.7 3.7-2-4.7c-4 1.1-6.2 0.8-9 0.4l-2.2 4.8-9.5-3.7 1.9-4.4c-2.7-1.8-5-4-6.8-6.9l-4.3 1.9-4-9.3 4.9-2.1c-0.5-2.7-0.5-5.2-0.1-7.5l-4.7-2.3 3.8-9.5 4.9 1.7c1.5-2.4 2.9-4.2 6.3-6.3l-1.7-4.1 8.7-3.7 1.7 4c2.7-0.5 5.8-0.5 8.6-0.1l1.8-4.5 9.5 3.8-1.7 4.9c2 1.3 3.8 2.9 5.4 5.1l4.6-1.9 4 9.3-3.9 1.7c0.8 3.3 0.8 6.4 0.3 9.6zm-10.4-10.3c-3.3-7.7-12.3-11.3-20-7.9-7.7 3.3-11.2 12.3-7.8 20 3.3 7.7 12.2 11.2 19.9 7.9 7.7-3.4 11.3-12.3 7.9-20z"/><path class="a" d="m45.4 26.6h36"/><path class="a" d="m45.4 37.6h25"/><path class="a" d="m123.4 10.5v11.1"/><path class="a" d="m129.7 16h-12.5"/></svg>