<svg width="14" height="14" viewBox="0 0 14 14" fill="none" xmlns="http://www.w3.org/2000/svg">
<g clip-path="url(#clip0_1_260)">
<path d="M0.4375 7C0.4375 5.70206 0.822384 4.43327 1.54348 3.35407C2.26458 2.27488 3.2895 1.43374 4.48864 0.937044C5.68778 0.440343 7.00728 0.310384 8.28028 0.5636C9.55328 0.816815 10.7226 1.44183 11.6404 2.35961C12.5582 3.2774 13.1832 4.44672 13.4364 5.71972C13.6896 6.99272 13.5597 8.31222 13.063 9.51136C12.5663 10.7105 11.7251 11.7354 10.6459 12.4565C9.56673 13.1776 8.29794 13.5625 7 13.5625C5.25952 13.5625 3.59032 12.8711 2.35961 11.6404C1.1289 10.4097 0.4375 8.74049 0.4375 7ZM12.6875 7C12.6875 5.87512 12.3539 4.7755 11.729 3.8402C11.104 2.90489 10.2158 2.17591 9.17651 1.74544C8.13726 1.31496 6.99369 1.20233 5.89042 1.42179C4.78716 1.64124 3.77374 2.18292 2.97833 2.97833C2.18292 3.77374 1.64124 4.78716 1.42178 5.89043C1.20233 6.99369 1.31496 8.13726 1.74544 9.17652C2.17591 10.2158 2.90489 11.104 3.84019 11.729C4.7755 12.3539 5.87512 12.6875 7 12.6875C8.50842 12.6875 9.95506 12.0883 11.0217 11.0217C12.0883 9.95506 12.6875 8.50842 12.6875 7Z" fill="white"/>
<path d="M5.30685 9.44565L7.7481 7.00002L5.30685 4.5544C5.22536 4.47243 5.17963 4.36154 5.17963 4.24596C5.17963 4.13038 5.22536 4.0195 5.30685 3.93752C5.38882 3.85604 5.4997 3.8103 5.61529 3.8103C5.73087 3.8103 5.84175 3.85604 5.92372 3.93752L8.70622 6.72002C8.77996 6.79456 8.82132 6.89518 8.82132 7.00002C8.82132 7.10487 8.77996 7.20549 8.70622 7.28002L5.92372 10.0625C5.84175 10.144 5.73087 10.1897 5.61529 10.1897C5.4997 10.1897 5.38882 10.144 5.30685 10.0625C5.22536 9.98055 5.17963 9.86967 5.17963 9.75409C5.17963 9.63851 5.22536 9.52762 5.30685 9.44565Z" fill="white"/>
</g>
<defs>
<clipPath id="clip0_1_260">
<rect width="14" height="14" fill="white"/>
</clipPath>
</defs>
</svg>
