<svg width="134" height="134" viewBox="0 0 134 134" fill="none" xmlns="http://www.w3.org/2000/svg">
<path d="M73.9555 86.3715L67.9088 90.2773C67.6322 90.4559 67.3161 90.5453 67 90.5453C66.6839 90.5453 66.3678 90.4559 66.0912 90.2773L60.0445 86.3715L29.9747 105.794L20.8271 111.703C21.5223 112.904 22.8202 113.713 24.308 113.713H109.692C111.18 113.713 112.478 112.904 113.173 111.703L104.025 105.794L73.9555 86.3715Z" fill="#231F20"/>
<path d="M31.0665 63.6656L67 86.8757L73.696 82.5515C72.9697 82.7673 72.2113 82.8785 71.4501 82.8785C69.3839 82.8785 67.4301 82.0865 65.9467 80.6487L56.544 71.53C55.9584 71.7458 55.338 71.8583 54.7135 71.8583C53.3722 71.8583 52.1032 71.3505 51.1424 70.4728C49.9552 70.9699 48.6768 71.2299 47.3904 71.2299C45.6256 71.2299 43.9292 70.7515 42.4592 69.8872C40.9892 69.0229 39.7471 67.7727 38.8908 66.2303L36.5498 62.0133C35.7217 60.5246 35.309 58.8831 35.3237 57.2255H24.3076C23.4969 57.2255 22.7425 57.4667 22.11 57.8808L23.1766 58.5695L31.0665 63.6656Z" fill="#231F20"/>
<path d="M96.0968 61.0405C95.7283 62.3309 94.8787 63.4002 93.7049 64.0528C92.9598 64.4655 92.117 64.6853 91.2674 64.6853C90.7006 64.6853 90.1472 64.5902 89.6272 64.4093C89.1073 64.2297 88.6196 63.9657 88.1867 63.6307L84.7617 64.3181L81.3152 65.0109L74.0337 66.4729L76.9522 69.3029C78.7652 71.061 79.6161 73.5079 79.2838 76.0123C79.0788 77.5667 78.4396 78.9804 77.456 80.1221L102.933 63.6656L110.823 58.5695L111.89 57.8808C111.258 57.4667 110.503 57.2255 109.692 57.2255H95.6613C96.3098 58.3967 96.4653 59.7514 96.0968 61.0405Z" fill="#231F20"/>
<path d="M113.676 60.7149L109.108 63.6656L77.042 84.378L105.843 102.98L113.712 108.062V61.2455C113.712 61.066 113.699 60.8878 113.676 60.7149Z" fill="#231F20"/>
<path d="M56.958 84.378L24.8918 63.6656L20.3238 60.7149C20.301 60.8878 20.2876 61.066 20.2876 61.2455V108.062L28.1574 102.98L56.958 84.378Z" fill="#231F20"/>
<path d="M64.644 28.095L83.0548 61.2442L89.4029 59.9692C89.4384 59.9621 89.4718 59.9508 89.5064 59.9417L89.8013 60.4726C90.2505 61.2813 91.2702 61.5728 92.0789 61.1236C92.8876 60.6744 93.179 59.6548 92.73 58.846L86.7509 48.0804C91.2079 45.605 92.8201 39.9653 90.3447 35.5081C87.8693 31.0512 82.2295 29.439 77.7724 31.9144L71.7933 21.1488C71.3441 20.3402 70.3244 20.0487 69.5157 20.4979C68.707 20.947 68.4156 21.9666 68.8647 22.7755L69.1595 23.3064C69.1337 23.331 69.1065 23.3533 69.0817 23.3797L64.644 28.095ZM87.4158 37.1349C88.9944 39.9771 87.9663 43.5735 85.1242 45.152L79.3988 34.8432C82.2409 33.2647 85.8373 34.2928 87.4158 37.1349Z" fill="#231F20"/>
<path d="M41.8201 64.6044C43.5268 67.6776 47.4017 68.7852 50.4749 67.0784L52.232 66.1025L53.0127 67.5083C53.5337 68.4464 54.7166 68.7845 55.6548 68.2635L55.6749 68.2524C56.6401 67.7164 57.832 67.9577 58.5563 68.791C58.6419 68.8894 58.7327 68.9855 58.8287 69.0785L68.2792 78.2443C69.7199 79.6415 71.9055 79.9308 73.6599 78.9563C76.3302 77.4734 76.8118 73.8338 74.6192 71.7072L67.1292 64.4429L79.6073 61.9367L62.2342 30.6558L49.4201 44.2718C49.2191 44.4854 49.0771 44.737 48.9944 45.0046C48.9194 45.0348 48.845 45.0681 48.7725 45.1085L44.2038 47.6459C43.2657 48.1669 42.9276 49.3498 43.4486 50.2878L43.7088 50.7564L41.9516 51.7324C38.8785 53.4391 37.7709 57.314 39.4776 60.3871L41.8201 64.6044ZM43.5784 54.6609L45.3356 53.685L50.6055 63.1737L48.8484 64.1496C47.395 64.9568 45.556 64.4311 44.7488 62.9778L42.4066 58.7605C41.5992 57.3072 42.125 55.4681 43.5784 54.6609Z" fill="#231F20"/>
<path d="M89.9872 30.239C90.2759 30.436 90.6042 30.5302 90.9292 30.5302C91.4644 30.5302 91.9903 30.2742 92.3146 29.7985L96.3346 23.9025C96.8557 23.1382 96.6586 22.0962 95.8943 21.5751C95.1301 21.0538 94.088 21.2509 93.5669 22.0154L89.5469 27.9114C89.0257 28.6757 89.2228 29.7179 89.9872 30.239Z" fill="#231F20"/>
<path d="M101.072 45.4904C101.311 45.6097 101.566 45.6663 101.817 45.6663C102.432 45.6663 103.025 45.3257 103.318 44.7373C103.73 43.9091 103.393 42.9036 102.565 42.4913L96.1762 39.3113C95.348 38.899 94.3424 39.2363 93.9302 40.0644C93.5181 40.8925 93.8552 41.8981 94.6833 42.3104L101.072 45.4904Z" fill="#231F20"/>
<path d="M92.6842 35.655C93.0084 36.1305 93.5342 36.3864 94.0694 36.3864C94.3945 36.3864 94.723 36.2921 95.0117 36.0951L106.904 27.9841C107.668 27.4628 107.865 26.4208 107.344 25.6565C106.823 24.8923 105.781 24.6952 105.016 25.2166L93.1241 33.3276C92.3599 33.8487 92.1629 34.8908 92.6842 35.655Z" fill="#231F20"/>
</svg>
