<svg version="1.2" xmlns="http://www.w3.org/2000/svg" viewBox="0 0 20 16" width="20" height="16"><defs><clipPath clipPathUnits="userSpaceOnUse" id="cp1"><path d="m0-4h20v20h-20z"/></clipPath></defs><style>.a{fill:none;stroke:#fff;stroke-miterlimit:10}</style><g clip-path="url(#cp1)"><path fill-rule="evenodd" class="a" d="m12.6 11.1c0 0 1.1-0.7 1.4-0.8 0.3-0.2 0.6-0.2 0.8-0.1 0.2 0.2 2.6 1.7 2.8 1.9 0.2 0.1 0.3 0.5 0 0.9-0.3 0.4-1.5 1.9-2 1.9-0.6 0-2.8-0.1-6.9-4.2-4.2-4.2-4.2-6.4-4.3-6.9 0-0.6 1.6-1.8 1.9-2.1 0.4-0.2 0.8-0.1 1 0 0.1 0.3 1.7 2.6 1.8 2.9 0.2 0.2 0.1 0.5 0 0.8-0.2 0.2-0.8 1.4-0.8 1.4 0 0 0.4 0.7 2 2.3 1.5 1.5 2.3 2 2.3 2z"/></g></svg>