<svg width="14" height="14" viewBox="0 0 14 14" fill="none" xmlns="http://www.w3.org/2000/svg">
<path d="M13.125 2.04163H0.875C0.642936 2.04163 0.420376 2.13381 0.256282 2.29791C0.0921872 2.462 0 2.68456 0 2.91663L0 11.0833C0 11.3154 0.0921872 11.5379 0.256282 11.702C0.420376 11.8661 0.642936 11.9583 0.875 11.9583H13.125C13.3571 11.9583 13.5796 11.8661 13.7437 11.702C13.9078 11.5379 14 11.3154 14 11.0833V2.91663C14 2.68456 13.9078 2.462 13.7437 2.29791C13.5796 2.13381 13.3571 2.04163 13.125 2.04163ZM12.9383 2.62496L7 7.21579L1.06167 2.62496H12.9383ZM0.583333 10.9637V2.99246L5.07792 6.46621L0.583333 10.9637ZM0.994583 11.375L5.54167 6.82788L6.81917 7.81663C6.87017 7.85589 6.93272 7.87718 6.99708 7.87718C7.06144 7.87718 7.124 7.85589 7.175 7.81663L8.45833 6.82788L13.0054 11.375H0.994583ZM13.4167 10.9637L8.92208 6.46621L13.4167 2.99246V10.9637Z" fill="white"/>
</svg>
