<svg width="140" height="140" viewBox="0 0 140 140" fill="none" xmlns="http://www.w3.org/2000/svg">
<g clip-path="url(#clip0_21_602)">
<path fill-rule="evenodd" clip-rule="evenodd" d="M59.9563 34.3125L58.8484 33.2816L8.91464 87.0757L10.0226 88.1077L59.9563 34.3125Z" fill="#424242"/>
<path fill-rule="evenodd" clip-rule="evenodd" d="M13.3476 95.1274L12.9927 96.5952L57.5101 107.332L57.8656 105.864L13.3476 95.1274Z" fill="#424242"/>
<path fill-rule="evenodd" clip-rule="evenodd" d="M125.117 56.6437L123.643 56.3117L117.954 81.2854L119.428 81.6168L125.117 56.6437Z" fill="#424242"/>
<path fill-rule="evenodd" clip-rule="evenodd" d="M77.4832 105.783L78.0569 107.179L110.721 92.4116L110.148 91.0165L77.4832 105.783Z" fill="#424242"/>
<path fill-rule="evenodd" clip-rule="evenodd" d="M62.7027 100.026L64.0256 99.2842L53.5617 80.7128L52.2388 81.4543L62.7027 100.026Z" fill="#424242"/>
<path fill-rule="evenodd" clip-rule="evenodd" d="M55.5824 71.8665L56.1156 73.2824L116.839 50.3195L116.305 48.9031L55.5824 71.8665Z" fill="#424242"/>
<path fill-rule="evenodd" clip-rule="evenodd" d="M71.1875 28.6698L70.7785 30.1283L116.035 42.9411L116.443 41.4826L71.1875 28.6698Z" fill="#424242"/>
<path fill-rule="evenodd" clip-rule="evenodd" d="M68.9399 32.9775L67.7843 33.9554L109.982 83.8918L111.137 82.9134L68.9399 32.9775Z" fill="#424242"/>
<path fill-rule="evenodd" clip-rule="evenodd" d="M119.36 53.778L118.264 52.7351L73.1689 100.057L74.2654 101.1L119.36 53.778Z" fill="#424242"/>
<path fill-rule="evenodd" clip-rule="evenodd" d="M66.2454 34.9468H64.7251V98.9697H66.2454V34.9468Z" fill="#424242"/>
<path fill-rule="evenodd" clip-rule="evenodd" d="M60.4693 34.1446L58.9922 33.8006L50.7267 68.7089L52.2038 69.0528L60.4693 34.1446Z" fill="#424242"/>
<path fill-rule="evenodd" clip-rule="evenodd" d="M11.5949 88.508L12.1281 89.9238L43.6703 77.9964L43.1366 76.58L11.5949 88.508Z" fill="#424242"/>
<path d="M127.518 32.9294C130.965 32.9294 134.086 34.3272 136.344 36.5853C138.603 38.8444 140 41.9654 140 45.4113C140 48.8577 138.603 51.9788 136.344 54.2368C134.086 56.496 130.965 57.8938 127.518 57.8938C124.072 57.8938 120.951 56.496 118.693 54.2368C116.435 51.9788 115.037 48.8577 115.037 45.4113C115.037 41.9654 116.435 38.8444 118.693 36.5853C120.951 34.3272 124.072 32.9294 127.518 32.9294Z" fill="#FCB825"/>
<path d="M115.98 80.1479C118.169 80.1479 120.152 81.0355 121.586 82.4699C123.02 83.9044 123.908 85.8868 123.908 88.076C123.908 90.264 123.02 92.2465 121.586 93.6809C120.152 95.1159 118.169 96.0029 115.98 96.0029C113.791 96.0029 111.81 95.1159 110.375 93.6809C108.941 92.2465 108.053 90.264 108.053 88.076C108.053 85.8868 108.941 83.9044 110.375 82.4699C111.81 81.0355 113.791 80.1479 115.98 80.1479Z" fill="#7A943B"/>
<path d="M67.7532 97.9186C70.8228 97.9186 73.6004 99.1628 75.6118 101.174C77.6232 103.186 78.8673 105.964 78.8673 109.033C78.8673 112.102 77.6232 114.881 75.6118 116.891C73.6004 118.903 70.8228 120.146 67.7532 120.146C64.6846 120.146 61.9059 118.903 59.8951 116.891C57.8837 114.881 56.6395 112.102 56.6395 109.033C56.6395 105.964 57.8837 103.186 59.8951 101.174C61.9059 99.1628 64.6846 97.9186 67.7532 97.9186Z" fill="#3572B8"/>
<path d="M7.18651 86.3506C9.17004 86.3506 10.9671 87.1556 12.267 88.4555C13.5675 89.756 14.3725 91.553 14.3725 93.5366C14.3725 95.5206 13.568 97.3177 12.267 98.6176C10.9671 99.9181 9.17058 100.723 7.18651 100.723C5.20244 100.723 3.4054 99.9181 2.10493 98.6176C0.805003 97.3177 0 95.5206 0 93.5366C0 91.553 0.805003 89.756 2.10493 88.4555C3.4054 87.1556 5.20244 86.3506 7.18651 86.3506Z" fill="#B21F17"/>
<path d="M64.0005 19.853C66.1896 19.853 68.171 20.7406 69.6054 22.1745C71.0404 23.609 71.9275 25.5914 71.9275 27.7806C71.9275 29.9692 71.0404 31.951 69.6054 33.3855C68.171 34.82 66.1896 35.7075 64.0005 35.7075C61.8113 35.7075 59.8295 34.82 58.395 33.3855C56.9605 31.951 56.073 29.9692 56.073 27.7806C56.073 25.5914 56.9605 23.609 58.395 22.1745C59.8295 20.7406 61.8113 19.853 64.0005 19.853Z" fill="#EB6D1D"/>
<path d="M49.5722 67.6151C51.6564 67.6151 53.5436 68.46 54.9097 69.8261C56.2758 71.1922 57.1213 73.0801 57.1213 75.1648C57.1213 77.2494 56.2758 79.1373 54.9097 80.5034C53.5436 81.8695 51.6564 82.7149 49.5722 82.7149C47.487 82.7149 45.5997 81.8695 44.2336 80.5034C42.8675 79.1373 42.022 77.2494 42.022 75.1648C42.022 73.0801 42.8675 71.1922 44.2336 69.8261C45.5997 68.46 47.487 67.6151 49.5722 67.6151Z" fill="#733D91"/>
</g>
<defs>
<clipPath id="clip0_21_602">
<rect width="140" height="140" fill="white"/>
</clipPath>
</defs>
</svg>
