<svg width="90" height="90" viewBox="0 0 90 90" fill="none" xmlns="http://www.w3.org/2000/svg">
<g clip-path="url(#clip0_21_268)">
<path d="M58.6537 42.2986L56.0113 38.6546L60.4574 37.9462C62.086 37.5838 61.6788 35.3445 61.8172 34.0946C61.6666 32.8487 62.1063 30.6012 60.4574 30.2389L56.0072 29.5345L58.6537 25.8946C59.6471 23.8181 56.162 21.6969 54.8021 20.4347C53.6214 19.4006 51.5042 21.8842 49.558 23.0853L48.8577 18.6352C48.1859 16.4936 44.0493 17.4137 42.2741 17.5033C40.7229 17.6214 40.9876 20.732 40.442 23.0812L36.7777 20.4347C34.7134 19.4454 32.5718 22.955 31.3504 24.2986C30.3203 25.4793 32.808 27.6005 34.0009 29.5345L29.5548 30.2389C27.9059 30.6094 28.3334 32.8039 28.199 34.0946C28.3497 35.3852 27.9059 37.5716 29.5548 37.9462L34.0009 38.6546L31.3544 42.2986C30.361 44.371 33.8584 46.4963 35.2061 47.7544C36.3868 48.7885 38.508 46.3008 40.4501 45.1038L41.1586 49.554C41.5413 51.2029 43.7073 50.751 45.0142 50.9057C46.3212 50.751 48.4913 51.2029 48.8659 49.554L49.5743 45.1038L53.2183 47.7503C55.2947 48.7437 57.42 45.2423 58.6741 43.8946C58.8387 43.6601 58.9254 43.3798 58.9217 43.0933C58.9181 42.8068 58.8243 42.5288 58.6537 42.2986ZM53.9796 44.945L50.4945 42.4126C49.6435 41.7571 48.7559 42.5429 47.9091 42.7872C46.6266 43.0152 46.7609 46.2927 46.3171 48.1167C45.4394 48.1941 44.5565 48.1941 43.6788 48.1167C43.2309 46.2846 43.3694 43.0152 42.0869 42.7872C41.24 42.5429 40.3483 41.753 39.5015 42.4126L36.0122 44.941C35.3329 44.3784 34.7086 43.7527 34.1475 43.0722L36.6759 39.587C37.3314 38.7401 36.5496 37.8566 36.3054 37.0097C36.0814 35.7191 32.8202 35.8616 30.9717 35.4137C30.8862 34.5364 30.8862 33.6528 30.9717 32.7754C32.8161 32.3275 36.0774 32.47 36.3054 31.1794C36.5496 30.3325 37.3314 29.4449 36.6759 28.5981L34.1434 25.1129C34.708 24.4342 35.3336 23.8087 36.0122 23.2441L39.4933 25.7725C40.3402 26.4239 41.2278 25.6503 42.0746 25.4019C43.3612 25.1739 43.2228 21.9127 43.6707 20.0683C44.548 19.9828 45.4316 19.9828 46.309 20.0683C46.7568 21.9086 46.6143 25.1739 47.9009 25.4019C48.7519 25.6462 49.6394 26.432 50.4863 25.7765L53.9715 23.2441C54.6511 23.8076 55.2767 24.4333 55.8403 25.1129L53.3078 28.5981C52.6523 29.449 53.4341 30.3325 53.6865 31.1834C53.9104 32.466 57.188 32.3316 59.0161 32.7754C59.1016 33.6528 59.1016 34.5364 59.0161 35.4137C57.1758 35.8616 53.9104 35.7191 53.6865 37.0057C53.4341 37.8525 52.6523 38.7401 53.3078 39.587L55.8403 43.0762C55.2783 43.7545 54.6555 44.38 53.9796 44.945ZM44.998 28.6347C43.551 28.6347 42.1633 29.2095 41.1401 30.2327C40.117 31.2558 39.5422 32.6435 39.5422 34.0905C39.5422 35.5374 40.117 36.9251 41.1401 37.9483C42.1633 38.9715 43.551 39.5463 44.998 39.5463C46.4449 39.5463 47.8326 38.9715 48.8558 37.9483C49.8789 36.9251 50.4537 35.5374 50.4537 34.0905C50.4537 32.6435 49.8789 31.2558 48.8558 30.2327C47.8326 29.2095 46.4449 28.6347 44.998 28.6347ZM44.998 36.8184C44.2745 36.8184 43.5806 36.531 43.0691 36.0194C42.5575 35.5078 42.2701 34.814 42.2701 34.0905C42.2701 33.367 42.5575 32.6731 43.0691 32.1616C43.5806 31.65 44.2745 31.3626 44.998 31.3626C45.7214 31.3626 46.4153 31.65 46.9269 32.1616C47.4384 32.6731 47.7259 33.367 47.7259 34.0905C47.7259 34.814 47.4384 35.5078 46.9269 36.0194C46.4153 36.531 45.7214 36.8184 44.998 36.8184ZM85.0002 0H4.99977C3.67441 0.00215331 2.40395 0.529605 1.46678 1.46678C0.529605 2.40395 0.00215331 3.67441 0 4.99977L0 74.1009C0.00215331 75.4263 0.529605 76.6967 1.46678 77.6339C2.40395 78.5711 3.67441 79.0985 4.99977 79.1007H27.2789V87.2843H17.7272C17.5421 87.2742 17.3569 87.3019 17.1828 87.3658C17.0088 87.4297 16.8496 87.5283 16.715 87.6558C16.5803 87.7833 16.4731 87.9368 16.3998 88.1071C16.3266 88.2774 16.2888 88.4608 16.2888 88.6462C16.2888 88.8316 16.3266 89.0151 16.3998 89.1854C16.4731 89.3557 16.5803 89.5092 16.715 89.6367C16.8496 89.7641 17.0088 89.8628 17.1828 89.9267C17.3569 89.9906 17.5421 90.0183 17.7272 90.0082H72.285C72.6333 89.9891 72.9611 89.8373 73.201 89.584C73.4408 89.3307 73.5745 88.9951 73.5745 88.6462C73.5745 88.2974 73.4408 87.9618 73.201 87.7085C72.9611 87.4552 72.6333 87.3034 72.285 87.2843H62.7252V79.1007H85.0002C86.3256 79.0985 87.596 78.5711 88.5332 77.6339C89.4704 76.6967 89.9978 75.4263 90 74.1009V4.99977C89.9978 3.67441 89.4704 2.40395 88.5332 1.46678C87.596 0.529605 86.3256 0.00215331 85.0002 0ZM2.72789 4.99977C2.72789 4.39723 2.96725 3.81937 3.39331 3.39331C3.81937 2.96725 4.39723 2.72789 4.99977 2.72789H85.0002C85.6028 2.72789 86.1806 2.96725 86.6067 3.39331C87.0328 3.81937 87.2721 4.39723 87.2721 4.99977V65.4571H2.72789V4.99977ZM59.9973 87.2762H29.9986V79.0925H59.9973V87.2762ZM87.2762 74.0927C87.2762 74.6953 87.0368 75.2731 86.6108 75.6992C86.1847 76.1253 85.6068 76.3646 85.0043 76.3646H4.99977C4.39864 76.3646 3.82201 76.1264 3.39618 75.7021C2.97035 75.2778 2.73004 74.702 2.72789 74.1009V68.185H87.2721L87.2762 74.0927ZM13.1794 39.9982C14.506 39.9957 15.7931 39.5464 16.8332 38.7228C17.8732 37.8992 18.6055 36.7492 18.912 35.4585C21.3142 35.2671 24.5225 36.1914 24.5429 34.0946C24.5429 33.7328 24.3992 33.3859 24.1434 33.1301C23.8876 32.8743 23.5407 32.7306 23.1789 32.7306H18.912C18.6557 31.6511 18.1003 30.6656 17.3095 29.8873C16.5188 29.1089 15.5247 28.5691 14.4413 28.3298C13.3578 28.0906 12.2288 28.1614 11.1838 28.5344C10.1388 28.9073 9.22007 29.5672 8.5329 30.4383C7.84573 31.3095 7.41797 32.3567 7.29867 33.4598C7.17937 34.5629 7.37336 35.6774 7.8584 36.6753C8.34343 37.6732 9.09988 38.5143 10.041 39.102C10.9821 39.6897 12.0698 40.0003 13.1794 39.9982ZM13.1794 30.9107C14.0227 30.9107 14.8315 31.2457 15.4278 31.842C16.0242 32.4383 16.3592 33.2471 16.3592 34.0905C16.3592 34.9338 16.0242 35.7426 15.4278 36.339C14.8315 36.9353 14.0227 37.2703 13.1794 37.2703C12.336 37.2703 11.5272 36.9353 10.9309 36.339C10.3346 35.7426 9.99955 34.9338 9.99955 34.0905C9.99955 33.2471 10.3346 32.4383 10.9309 31.842C11.5272 31.2457 12.336 30.9107 13.1794 30.9107ZM13.1794 21.819C14.5069 21.8154 15.7945 21.3646 16.8346 20.5395C17.8746 19.7145 18.6064 18.5631 18.912 17.2712H26.2407L28.8261 19.8525C30.0475 21.1228 32.0262 19.1604 30.7519 17.9267L27.7797 14.9423C27.5191 14.1525 20.2312 14.694 18.912 14.5352C18.6528 13.4572 18.0953 12.474 17.3033 11.6982C16.5113 10.9223 15.5169 10.3852 14.4338 10.1482C13.3508 9.91123 12.2229 9.98402 11.1793 10.3583C10.1356 10.7325 9.21849 11.393 8.53281 12.2642C7.84713 13.1355 7.42064 14.1821 7.30215 15.2845C7.18366 16.3868 7.37798 17.5002 7.86284 18.4973C8.34771 19.4943 9.10353 20.3347 10.0438 20.9221C10.984 21.5096 12.0707 21.8204 13.1794 21.819ZM13.1794 12.7274C14.0227 12.7274 14.8315 13.0625 15.4278 13.6588C16.0242 14.2551 16.3592 15.0639 16.3592 15.9073C16.3592 16.7506 16.0242 17.5594 15.4278 18.1557C14.8315 18.7521 14.0227 19.0871 13.1794 19.0871C12.336 19.0871 11.5272 18.7521 10.9309 18.1557C10.3346 17.5594 9.99955 16.7506 9.99955 15.9073C9.99955 15.0639 10.3346 14.2551 10.9309 13.6588C11.5272 13.0625 12.336 12.7274 13.1794 12.7274ZM28.8342 48.3284L26.2488 50.9098H18.9202C18.5859 49.5021 17.7463 48.2661 16.5609 47.4366C15.3754 46.6071 13.9266 46.2418 12.4896 46.4101C11.0526 46.5784 9.72738 47.2685 8.76564 48.3495C7.8039 49.4304 7.27259 50.8269 7.27259 52.2737C7.27259 53.7205 7.8039 55.117 8.76564 56.1979C9.72738 57.2789 11.0526 57.969 12.4896 58.1373C13.9266 58.3056 15.3754 57.9403 16.5609 57.1108C17.7463 56.2813 18.5859 55.0453 18.9202 53.6376C20.223 53.4911 27.5273 54.0448 27.7878 53.2305L30.7682 50.2502C32.0303 49.0247 30.0679 47.0581 28.8342 48.3284ZM13.1794 55.4576C12.3552 55.4281 11.5746 55.08 11.002 54.4865C10.4293 53.893 10.1093 53.1004 10.1093 52.2757C10.1093 51.451 10.4293 50.6585 11.002 50.065C11.5746 49.4715 12.3552 49.1234 13.1794 49.0939C14.0036 49.1234 14.7841 49.4715 15.3568 50.065C15.9294 50.6585 16.2494 51.451 16.2494 52.2757C16.2494 53.1004 15.9294 53.893 15.3568 54.4865C14.7841 55.08 14.0036 55.4281 13.1794 55.4576ZM76.8166 28.1787C75.4892 28.1807 74.2013 28.6303 73.161 29.4549C72.1208 30.2794 71.389 31.4306 71.0839 32.7225C68.6817 32.9098 65.4734 31.9855 65.449 34.0864C65.4501 34.4478 65.5941 34.7941 65.8497 35.0497C66.1052 35.3052 66.4515 35.4493 66.8129 35.4504H71.0798C71.3369 36.5293 71.8927 37.5141 72.6835 38.2918C73.4744 39.0694 74.4683 39.6086 75.5515 39.8475C76.6346 40.0863 77.7631 40.0152 78.8077 39.6423C79.8523 39.2694 80.7707 38.6097 81.4577 37.7389C82.1447 36.8681 82.5725 35.8214 82.692 34.7187C82.8116 33.616 82.6181 32.5019 82.1337 31.5041C81.6493 30.5063 80.8936 29.6651 79.9532 29.077C79.0128 28.4888 77.9257 28.1775 76.8166 28.1787ZM76.8166 37.2662C75.9732 37.2662 75.1644 36.9312 74.5681 36.3349C73.9717 35.7386 73.6367 34.9297 73.6367 34.0864C73.6367 33.2431 73.9717 32.4343 74.5681 31.8379C75.1644 31.2416 75.9732 30.9066 76.8166 30.9066C77.6604 30.9066 78.4697 31.2418 79.0665 31.8385C79.6632 32.4352 79.9984 33.2446 79.9984 34.0884C79.9984 34.9323 79.6632 35.7416 79.0665 36.3384C78.4697 36.9351 77.6604 37.2703 76.8166 37.2703V37.2662ZM76.8166 46.3619C75.4907 46.3645 74.2042 46.8128 73.1638 47.6346C72.1233 48.4565 71.3894 49.6042 71.0798 50.8935H63.7512L61.1658 48.3122C60.9071 48.0706 60.5647 47.9391 60.2109 47.9454C59.857 47.9516 59.5195 48.0951 59.2695 48.3456C59.0195 48.5962 58.8767 48.934 58.8712 49.2879C58.8657 49.6417 58.9979 49.9839 59.24 50.242L62.2244 53.2224C62.4768 54.0122 69.7933 53.4707 71.0921 53.6295C71.3498 54.7073 71.9058 55.6906 72.6965 56.467C73.4873 57.2434 74.4806 57.7814 75.5629 58.0193C76.6452 58.2573 77.7726 58.1857 78.8161 57.8126C79.8595 57.4395 80.7768 56.7801 81.4628 55.9098C82.1489 55.0396 82.576 53.9938 82.6952 52.892C82.8144 51.7903 82.6209 50.6773 82.1369 49.6805C81.6528 48.6837 80.8978 47.8433 79.9583 47.2557C79.0188 46.668 77.9328 46.3569 76.8247 46.3578L76.8166 46.3619ZM76.8166 55.4535C75.9924 55.424 75.2118 55.0759 74.6391 54.4824C74.0665 53.8889 73.7465 53.0964 73.7465 52.2717C73.7465 51.447 74.0665 50.6544 74.6391 50.0609C75.2118 49.4674 75.9924 49.1193 76.8166 49.0898C77.661 49.0898 78.4708 49.4252 79.0679 50.0223C79.665 50.6194 80.0005 51.4293 80.0005 52.2737C80.0005 53.1181 79.665 53.928 79.0679 54.5251C78.4708 55.1221 77.661 55.4576 76.8166 55.4576V55.4535ZM76.8166 9.99548C75.489 9.99876 74.2013 10.4488 73.1606 11.273C72.12 12.0972 71.387 13.2478 71.0798 14.5392C69.777 14.6858 62.4727 14.1321 62.2162 14.9464L59.2318 17.9308C57.9615 19.1522 59.9281 21.1269 61.1577 19.8566L63.743 17.2753H71.0717C71.3294 18.353 71.8855 19.3364 72.6762 20.1128C73.4669 20.8892 74.4603 21.4271 75.5425 21.6651C76.6248 21.9031 77.7523 21.8314 78.7957 21.4584C79.8392 21.0853 80.7564 20.4259 81.4425 19.5556C82.1285 18.6854 82.5556 17.6395 82.6748 16.5378C82.794 15.4361 82.6005 14.3231 82.1165 13.3263C81.6325 12.3294 80.8775 11.4891 79.938 10.9014C78.9985 10.3138 77.9125 10.0027 76.8043 10.0036L76.8166 9.99548ZM76.8166 19.083C75.9732 19.083 75.1644 18.748 74.5681 18.1517C73.9717 17.5553 73.6367 16.7465 73.6367 15.9032C73.6367 15.0598 73.9717 14.251 74.5681 13.6547C75.1644 13.0584 75.9732 12.7234 76.8166 12.7234C77.6604 12.7234 78.4697 13.0586 79.0665 13.6553C79.6632 14.252 79.9984 15.0613 79.9984 15.9052C79.9984 16.7491 79.6632 17.5584 79.0665 18.1551C78.4697 18.7519 77.6604 19.0871 76.8166 19.0871V19.083Z" fill="#1A171B"/>
</g>
<defs>
<clipPath id="clip0_21_268">
<rect width="90" height="90" fill="white"/>
</clipPath>
</defs>
</svg>
