<svg width="126" height="126" viewBox="0 0 126 126" fill="none" xmlns="http://www.w3.org/2000/svg">
<path d="M107.002 38.2922C106.657 36.3726 106.263 34.7484 105.87 33.5672C99.7664 15.4547 82.8844 3.14998 63.8367 3.00232H62.1141C43.0664 3.14998 26.1844 15.4547 20.0813 33.5672C19.6875 34.7484 19.2938 36.3726 18.9492 38.2922C17.6203 45.8719 18.457 53.5008 21.3609 60.2437C21.4594 60.4406 21.5578 60.6867 21.7055 61.0312C24.068 66.2484 27.5625 72.3023 30.9586 78.1593C33.8625 83.2289 36.8648 88.4461 39.0305 92.8758C39.6211 94.057 41.0484 94.5492 42.2297 93.9586C43.4109 93.3679 43.9031 91.9406 43.3125 90.7593C41.0977 86.1328 38.0461 80.8664 35.093 75.7476C31.7953 69.989 28.35 64.0336 26.0859 59.0133L25.7906 58.4226C23.182 52.4179 22.4438 45.7242 23.625 39.0797C23.9203 37.357 24.2156 36.0281 24.5602 35.0437C30.0234 18.8508 45.0844 7.87498 62.0648 7.72732H63.7383C80.7187 7.87498 95.8289 18.8508 101.292 35.0437C101.637 36.0281 101.932 37.357 102.227 39.0797C103.409 45.7242 102.67 52.4179 100.062 58.3734C100.012 58.5211 99.9141 58.6687 99.8648 58.8164L99.7664 59.0133C97.4531 64.0336 94.057 69.989 90.7594 75.7476C87.8062 80.8664 84.8039 86.1328 82.5398 90.7593C81.9492 91.9406 82.4414 93.3679 83.6226 93.9586C83.9672 94.1062 84.3117 94.2047 84.6562 94.2047C85.5422 94.2047 86.3789 93.7125 86.8219 92.8758C88.9875 88.3968 91.9898 83.1797 94.8937 78.1593C98.2406 72.3023 101.735 66.2484 104.147 60.982L104.442 60.3422C107.494 53.5008 108.33 45.8719 107.002 38.2922Z" fill="black"/>
<path d="M80.3742 99.668H45.675C44.4938 99.668 43.4109 100.209 42.6234 101.095C41.8852 101.981 41.5898 103.163 41.7867 104.344L43.4602 113.105C43.8047 114.975 45.4289 116.304 47.3484 116.304H50.0062C53.0086 120.488 57.8813 122.998 63.0492 122.998C68.2172 122.998 73.0898 120.438 76.0922 116.304H78.75C80.6203 116.304 82.2445 114.975 82.6383 113.105L84.3117 104.344C84.5086 103.212 84.2133 102.03 83.475 101.095C82.6383 100.16 81.5063 99.668 80.3742 99.668ZM78.0117 111.53H74.7633C73.9266 111.53 73.1391 111.973 72.6961 112.711C70.6781 116.107 66.9867 118.273 63 118.273C59.0625 118.273 55.3219 116.156 53.3039 112.711C52.8609 111.973 52.0734 111.53 51.2367 111.53H47.9883L46.6594 104.442H79.3406L78.0117 111.53Z" fill="black"/>
<path d="M58.8656 52.7625C59.3578 53.2547 59.9484 53.5008 60.5883 53.5008C61.1789 53.5008 61.7695 53.3039 62.2125 52.8609L71.5641 43.9523C72.4992 43.0664 72.5484 41.5406 71.6625 40.6054C70.7766 39.6703 69.2508 39.6211 68.2664 40.507L60.6375 47.7422L57.7828 44.789C56.8477 43.8539 55.3711 43.8047 54.3867 44.7398C53.4516 45.675 53.4023 47.1515 54.3375 48.1359L58.8656 52.7625Z" fill="black"/>
<path d="M43.1648 58.1274C42.3281 58.9641 42.2297 60.2438 42.9187 61.2281C44.4937 63.3938 46.4133 65.3133 48.5789 66.8883C49.5141 67.5774 50.6461 67.5774 51.4828 66.7899C51.5813 66.6914 51.6797 66.6422 51.7781 66.5438C52.1719 66.15 52.5656 65.7071 53.0086 65.3133C53.0578 65.2641 53.107 65.2149 53.1563 65.1656C54.3867 65.8547 55.7156 66.3469 57.0445 66.7899C57.0445 66.9375 57.0445 67.036 57.0445 67.1836C57.0445 67.725 57.0445 68.2172 57.0445 68.8571C57.0445 70.0383 57.8813 71.0227 59.0625 71.2196C60.3422 71.4164 61.6219 71.5149 63.0492 71.5149C64.3781 71.5149 65.707 71.4164 66.9867 71.2196C68.168 71.0227 69.0047 69.9399 69.0047 68.7586C69.0047 68.2172 69.0047 67.725 69.0047 67.1836C69.0047 67.036 69.0047 66.9375 69.0047 66.7899C70.3336 66.3961 71.6625 65.8547 72.893 65.1656L72.9422 65.2149C73.3852 65.6578 73.8281 66.1008 74.2711 66.5438L74.3203 66.593C74.6156 66.9375 75.0586 67.1344 75.5016 67.2821C76.1906 67.4297 76.8797 67.2821 77.4703 66.8883C79.6852 65.3133 81.5555 63.3938 83.1305 61.2281C83.8195 60.293 83.7211 58.9641 82.8844 58.1274L82.0969 57.2906C81.8508 57.0446 81.6539 56.8477 81.457 56.6016C82.1461 55.3711 82.6875 54.0422 83.0813 52.6641H85.05C85.2961 52.6641 85.6898 52.6149 85.9359 52.5164C86.7727 52.2211 87.4125 51.5321 87.5602 50.6461C87.8062 49.3172 87.9047 47.9883 87.9047 46.6102C87.9047 45.3305 87.8062 43.9524 87.5602 42.5742C87.3633 41.4422 86.3789 40.5563 85.1977 40.5563H84.2625C83.8687 40.5563 83.475 40.5563 83.0813 40.5563C82.6875 39.2274 82.1461 37.9477 81.457 36.7172C81.9492 36.225 82.4414 35.7328 82.9336 35.2899C83.7703 34.4531 83.918 33.1242 83.2289 32.1891C81.6539 29.9742 79.7344 28.1039 77.5195 26.4797C76.5844 25.7906 75.2555 25.8891 74.4188 26.775C74.025 27.1688 73.582 27.6117 73.1883 28.0055C73.0898 28.1039 73.0406 28.1532 72.9422 28.2516C71.7117 27.5625 70.3828 27.0703 69.0539 26.6274V26.5781C69.0539 26.4797 69.0539 26.4305 69.0539 26.3321V25.6922C69.0539 25.3477 69.0539 25.0031 69.0539 24.511C69.0539 23.3297 68.2172 22.3453 67.0359 22.1485C64.3781 21.7547 61.8187 21.7547 59.1609 22.1485C57.9797 22.3453 57.0938 23.4281 57.143 24.6586C57.143 25.0031 57.143 25.3477 57.143 25.6922V26.6274C55.8141 27.0211 54.4852 27.5625 53.2547 28.2024C53.2055 28.1531 53.107 28.0547 53.0578 28.0055C52.6148 27.6117 52.2211 27.1688 51.8273 26.775C50.9906 25.9383 49.6617 25.7906 48.7266 26.4797C46.5117 28.0547 44.5922 29.9742 43.0172 32.1891C42.3281 33.1735 42.4266 34.4531 43.3125 35.2899C43.8047 35.7821 44.2969 36.225 44.7891 36.7172C44.1 37.9477 43.6078 39.2274 43.1648 40.5563C42.7711 40.5563 42.3773 40.5563 41.9836 40.5563H41.0484C39.8672 40.5563 38.8828 41.393 38.6859 42.525C38.4398 43.8539 38.3414 45.1828 38.3414 46.6102C38.3414 47.9391 38.4398 49.268 38.6859 50.5969C38.8336 51.5321 39.5719 52.3196 40.4578 52.5164C40.6547 52.5656 40.9992 52.5656 41.1961 52.6149H43.1156C43.5094 53.993 44.1 55.3219 44.7398 56.5524C44.543 56.7492 44.3461 56.9461 44.1492 57.143L43.1648 58.1274ZM43.0172 47.9391C42.968 47.5453 42.968 47.1024 42.968 46.7086C42.968 46.2656 42.968 45.8719 43.0172 45.4289C43.5094 45.4289 43.9523 45.4289 44.4938 45.4781C44.8383 45.4781 45.1828 45.4289 45.4781 45.3797C46.3641 45.1336 47.0531 44.4446 47.2008 43.5586C47.5945 41.4914 48.4312 39.5719 49.5633 37.8492C50.0555 37.0617 50.1047 36.0774 49.6125 35.2899C49.3664 34.8961 49.1203 34.65 48.825 34.3547C48.5297 34.0594 48.2836 33.8133 47.9883 33.518C48.5297 32.8781 49.1203 32.2875 49.7602 31.7461C50.1047 32.0906 50.4 32.386 50.6953 32.6813C51.0891 33.1242 51.4828 33.4196 51.975 33.5672C52.6641 33.8133 53.4516 33.7641 54.0914 33.3211C55.8633 32.1399 57.832 31.3524 59.85 30.9586C60.6375 30.811 61.2773 30.2696 61.6219 29.5313C61.8187 29.0391 61.8188 28.5961 61.8188 28.3008C61.8188 28.0055 61.8188 27.7102 61.8188 27.4641V26.8735C62.6063 26.8242 63.3937 26.8242 64.1812 26.8735V27.218C64.1812 27.5625 64.1812 27.9071 64.1812 28.3008C64.132 28.7438 64.2305 29.1867 64.3781 29.6297C64.6734 30.368 65.3133 30.9094 66.15 31.0571C68.168 31.4508 70.1367 32.2383 71.9086 33.4196C72.4992 33.8133 73.2867 33.9117 73.9758 33.7149C74.468 33.5672 74.9109 33.2227 75.2555 32.8782C75.6 32.5336 75.8953 32.1891 76.2398 31.8938C76.8797 32.4352 77.4703 33.0258 78.0117 33.6657C77.7164 33.961 77.4703 34.2071 77.2242 34.5024C76.9289 34.7485 76.6336 35.0438 76.3875 35.4375C75.8953 36.225 75.9445 37.2094 76.4367 37.9969C77.618 39.7196 78.4055 41.6391 78.7992 43.7063C78.9961 44.5922 79.6359 45.3305 80.5219 45.5274C80.8172 45.6258 81.1617 45.675 81.6047 45.6258C82.0477 45.6258 82.4906 45.5766 82.9828 45.5766C83.032 46.0196 83.032 46.4133 83.032 46.8563C83.032 47.2992 83.032 47.693 82.9828 48.0867H81.2602C80.9156 48.0867 80.4727 48.1852 80.1281 48.3328C79.4391 48.6281 78.9469 49.268 78.7992 50.0063C78.3563 52.1227 77.5687 54.0422 76.3875 55.8141C75.8461 56.6016 75.8461 57.586 76.3383 58.4227C76.5352 58.718 76.732 58.9149 76.8797 59.0625C77.2242 59.4071 77.618 59.7516 77.9625 60.1453C77.4211 60.736 76.8305 61.3266 76.2398 61.868C75.8953 61.5235 75.5016 61.1297 75.1078 60.736C74.9109 60.5391 74.6648 60.3422 74.468 60.1946C73.6805 59.7024 72.6961 59.7516 71.9086 60.2438C70.1367 61.425 68.2172 62.2125 66.15 62.6063C65.2641 62.7539 64.575 63.443 64.3289 64.2797C64.2305 64.6735 64.1813 65.0672 64.2305 65.3625C64.2305 65.8547 64.2305 66.2977 64.2305 66.7899C63.443 66.8391 62.6555 66.8391 61.868 66.7899C61.868 66.2977 61.868 65.8055 61.868 65.2641C61.868 65.0672 61.868 64.6735 61.7695 64.2797C61.5234 63.443 60.8344 62.8031 59.9484 62.6063C57.8813 62.2125 55.9125 61.425 54.1898 60.2438C53.4023 59.7516 52.418 59.7024 51.6305 60.1946C51.3844 60.3422 51.1875 60.4899 50.9414 60.736C50.5969 61.1297 50.2031 61.4742 49.8586 61.8188C49.2188 61.2774 48.6773 60.6867 48.1359 60.0961C48.4805 59.7516 48.8742 59.3578 49.268 58.9641C49.3664 58.8657 49.6125 58.6196 49.7602 58.3242C50.2031 57.5367 50.2031 56.5524 49.6617 55.7649C48.4805 53.993 47.6438 52.0242 47.25 49.9571C47.1023 49.1203 46.4625 48.4313 45.675 48.1852C45.4289 48.0867 45.1336 48.0867 44.7891 48.0375L43.0172 47.9391Z" fill="black"/>
</svg>
