<svg width="114" height="114" viewBox="0 0 114 114" fill="none" xmlns="http://www.w3.org/2000/svg">
<path d="M36.7774 70.6155C35.3825 70.831 34.0091 70.9508 32.5966 70.9508C18.0602 70.9508 6.27588 59.1665 6.27588 44.63C6.27588 33.1501 13.7609 22.9614 24.7036 19.5238C28.1412 8.58108 38.3299 1.09607 49.8099 1.09607C56.1032 1.09607 62.1933 3.35948 66.9652 7.45678C70.571 5.9245 74.5323 5.11258 78.4492 5.11258C94.6176 5.11258 107.724 18.2191 107.724 34.3875C107.724 37.8169 107.114 41.2504 105.936 44.4698C106.22 44.9074 106.384 45.4298 106.384 45.99V88.5787C106.384 90.1218 105.134 91.374 103.589 91.374H74.3762V98.206H85.5761C87.1205 98.206 88.3713 99.4582 88.3713 101.001V110.109C88.3713 111.652 87.1205 112.904 85.5761 112.904H57.5857C56.0413 112.904 54.7904 111.652 54.7904 110.109V101.001C54.7904 99.4582 56.0413 98.206 57.5857 98.206H68.7856V91.374H39.5727C38.0283 91.374 36.7774 90.1218 36.7774 88.5787V70.6155ZM59.0924 63.3338C61.2737 63.3338 63.0429 65.1017 63.0429 67.2844C63.0429 69.4656 61.2737 71.2349 59.0924 71.2349C56.9098 71.2349 55.1419 69.4656 55.1419 67.2844C55.1419 65.1017 56.9098 63.3338 59.0924 63.3338ZM84.0694 63.3338C86.252 63.3338 88.0199 65.1017 88.0199 67.2844C88.0199 69.4656 86.252 71.2349 84.0694 71.2349C81.8881 71.2349 80.1188 69.4656 80.1188 67.2844C80.1188 65.1017 81.8881 63.3338 84.0694 63.3338ZM71.5809 63.3338C73.7635 63.3338 75.5314 65.1017 75.5314 67.2844C75.5314 69.4656 73.7635 71.2349 71.5809 71.2349C69.3996 71.2349 67.6304 69.4656 67.6304 67.2844C67.6304 65.1017 69.3996 63.3338 71.5809 63.3338ZM82.7808 103.797H60.381V107.313H82.7808V103.797ZM100.445 43.1947C101.576 40.3792 102.134 37.4224 102.134 34.3875C102.134 21.3065 91.5302 10.7031 78.4492 10.7031C74.6966 10.7031 71.1662 11.5298 67.8135 13.2183C66.7484 13.8175 65.3737 13.664 64.4662 12.7565C60.5439 8.83422 55.3573 6.6866 49.8099 6.6866C40.2823 6.6866 31.9732 13.1604 29.6815 22.416C29.4513 23.4057 28.6851 24.2338 27.6309 24.4936C18.3577 26.7719 11.8664 35.089 11.8664 44.63C11.8664 56.0791 21.1476 65.3589 32.5966 65.3589C34.005 65.3589 35.3959 65.2216 36.7774 64.9429V45.99C36.7774 44.4469 38.0283 43.1947 39.5727 43.1947H100.445ZM100.794 48.7852H42.3679V85.7835H100.794V48.7852Z" fill="black"/>
</svg>
