<svg width="126" height="126" viewBox="0 0 126 126" fill="none" xmlns="http://www.w3.org/2000/svg">
<g clip-path="url(#clip0_21_68)">
<path d="M19.593 35.154C20.7528 35.154 21.693 34.2138 21.693 33.054C21.693 31.8942 20.7528 30.954 19.593 30.954C18.4332 30.954 17.493 31.8942 17.493 33.054C17.493 34.2138 18.4332 35.154 19.593 35.154Z" fill="black"/>
<path d="M33.6 35.154C34.7598 35.154 35.7 34.2138 35.7 33.054C35.7 31.8942 34.7598 30.954 33.6 30.954C32.4402 30.954 31.5 31.8942 31.5 33.054C31.5 34.2138 32.4402 35.154 33.6 35.154Z" fill="black"/>
<path d="M26.607 35.154C27.7668 35.154 28.707 34.2138 28.707 33.054C28.707 31.8942 27.7668 30.954 26.607 30.954C25.4472 30.954 24.507 31.8942 24.507 33.054C24.507 34.2138 25.4472 35.154 26.607 35.154Z" fill="black"/>
<path d="M42 63.525L48.3 57.225C48.6954 56.8296 48.9176 56.2933 48.9176 55.734C48.9176 55.1748 48.6954 54.6385 48.3 54.243C47.9046 53.8476 47.3682 53.6254 46.809 53.6254C46.2498 53.6254 45.7134 53.8476 45.318 54.243L37.506 62.076C37.1149 62.4695 36.8953 63.0017 36.8953 63.5565C36.8953 64.1113 37.1149 64.6436 37.506 65.037L45.318 72.87C45.5132 73.0669 45.7455 73.2231 46.0014 73.3297C46.2573 73.4363 46.5318 73.4912 46.809 73.4912C47.0862 73.4912 47.3607 73.4363 47.6166 73.3297C47.8725 73.2231 48.1048 73.0669 48.3 72.87C48.6911 72.4766 48.9107 71.9443 48.9107 71.3895C48.9107 70.8347 48.6911 70.3025 48.3 69.909L42 63.525Z" fill="black"/>
<path d="M72.072 72.828C72.4655 73.2191 72.9977 73.4386 73.5525 73.4386C74.1073 73.4386 74.6395 73.2191 75.033 72.828L82.866 65.1C83.2571 64.7065 83.4767 64.1743 83.4767 63.6195C83.4767 63.0647 83.2571 62.5324 82.866 62.139L75.033 54.306C74.6376 53.9133 74.1023 53.6938 73.5451 53.6958C72.9878 53.6978 72.4542 53.921 72.0615 54.3165C71.6688 54.7119 71.4494 55.2471 71.4513 55.8044C71.4533 56.3617 71.6766 56.8953 72.072 57.288L78.372 63.588L72.072 69.888C71.6872 70.2805 71.4717 70.8083 71.4717 71.358C71.4717 71.9077 71.6872 72.4354 72.072 72.828Z" fill="black"/>
<path d="M65.1 54.915C64.8603 54.7761 64.5956 54.6861 64.3209 54.65C64.0463 54.6139 63.7672 54.6325 63.4998 54.7047C63.2324 54.7769 62.9819 54.9013 62.7628 55.0708C62.5437 55.2402 62.3602 55.4513 62.223 55.692L54.474 69.3C54.3221 69.539 54.22 69.8063 54.1741 70.0857C54.1281 70.3652 54.1392 70.6511 54.2065 70.9262C54.2739 71.2013 54.3963 71.4599 54.5662 71.6865C54.7361 71.9131 54.9501 72.1029 55.1953 72.2447C55.4405 72.3864 55.7119 72.4771 55.993 72.5112C56.2742 72.5454 56.5593 72.5223 56.8313 72.4434C57.1034 72.3645 57.3566 72.2314 57.5758 72.0521C57.795 71.8727 57.9757 71.6509 58.107 71.4L65.94 57.855C66.0865 57.6089 66.1812 57.3355 66.2182 57.0515C66.2551 56.7675 66.2336 56.4789 66.1549 56.2036C66.0762 55.9282 65.9421 55.6718 65.7607 55.4502C65.5792 55.2286 65.3544 55.0465 65.1 54.915Z" fill="black"/>
<path d="M117.306 84C117.182 83.9991 117.061 83.9604 116.96 83.8891C116.859 83.8178 116.782 83.7173 116.739 83.601C115.903 81.4029 114.719 79.3536 113.232 77.532C113.162 77.4302 113.124 77.3093 113.124 77.1855C113.124 77.0617 113.162 76.9408 113.232 76.839C113.872 75.7304 114.045 74.4134 113.714 73.177C113.384 71.9407 112.576 70.8861 111.468 70.245L109.893 69.3V30.954C109.893 29.2831 109.229 27.6807 108.048 26.4992C106.866 25.3177 105.264 24.654 103.593 24.654H16.8C15.1291 24.654 13.5267 25.3177 12.3452 26.4992C11.1637 27.6807 10.5 29.2831 10.5 30.954V84.168C10.5055 85.464 11.0228 86.7053 11.9392 87.6218C12.8557 88.5382 14.097 89.0555 15.393 89.061H44.1L42 96.831H39.207C37.1616 96.8324 35.1764 97.5234 33.5722 98.7923C31.9679 100.061 30.8384 101.834 30.366 103.824H25.2C24.643 103.824 24.1089 104.045 23.7151 104.439C23.3213 104.833 23.1 105.367 23.1 105.924C23.1 106.481 23.3213 107.015 23.7151 107.409C24.1089 107.803 24.643 108.024 25.2 108.024H78.687C78.6514 108.526 78.7011 109.03 78.834 109.515C78.9915 110.131 79.2716 110.709 79.6577 111.214C80.0438 111.719 80.5279 112.141 81.081 112.455L85.512 115.017C86.0622 115.333 86.6691 115.537 87.2983 115.618C87.9274 115.7 88.5664 115.656 89.1787 115.49C89.7911 115.325 90.3648 115.04 90.867 114.652C91.3693 114.265 91.7903 113.782 92.106 113.232C92.174 113.125 92.2719 113.04 92.3876 112.988C92.5032 112.935 92.6316 112.918 92.757 112.938C95.0639 113.337 97.4221 113.337 99.729 112.938C99.8567 112.917 99.9877 112.936 100.104 112.993C100.221 113.049 100.317 113.14 100.38 113.253C100.808 113.986 101.422 114.593 102.159 115.013C102.896 115.434 103.731 115.652 104.58 115.647C105.427 115.655 106.26 115.438 106.995 115.017L111.426 112.455C111.976 112.138 112.458 111.714 112.844 111.21C113.229 110.705 113.511 110.129 113.673 109.515C113.84 108.905 113.884 108.267 113.801 107.639C113.718 107.012 113.51 106.407 113.19 105.861C113.118 105.756 113.079 105.631 113.079 105.504C113.079 105.377 113.118 105.252 113.19 105.147C114.673 103.33 115.856 101.288 116.697 99.099C116.737 98.981 116.814 98.8788 116.915 98.807C117.017 98.7353 117.139 98.6978 117.264 98.7C118.543 98.6945 119.769 98.1838 120.673 97.2792C121.578 96.3746 122.088 95.1493 122.094 93.87V88.746C122.072 87.4868 121.559 86.286 120.665 85.3995C119.771 84.5129 118.565 84.0108 117.306 84ZM14.7 30.954C14.7 30.397 14.9212 29.8629 15.3151 29.4691C15.7089 29.0752 16.243 28.854 16.8 28.854H103.593C104.15 28.854 104.684 29.0752 105.078 29.4691C105.472 29.8629 105.693 30.397 105.693 30.954V37.254H14.7V30.954ZM15.393 84.861C15.302 84.861 15.2119 84.8431 15.1278 84.8082C15.0437 84.7734 14.9673 84.7224 14.903 84.658C14.8386 84.5937 14.7876 84.5173 14.7528 84.4332C14.7179 84.3491 14.7 84.259 14.7 84.168V41.454H105.693V67.2C104.699 66.9361 103.647 66.9976 102.691 67.3755C101.735 67.7535 100.925 68.428 100.38 69.3C100.315 69.4036 100.22 69.485 100.107 69.5337C99.9948 69.5824 99.8703 69.5961 99.75 69.573C97.4414 69.1949 95.0866 69.1949 92.778 69.573C92.6576 69.5992 92.5321 69.587 92.419 69.538C92.306 69.489 92.2112 69.4058 92.148 69.3C91.8326 68.7495 91.4113 68.2668 90.9084 67.8798C90.4056 67.4929 89.8312 67.2092 89.2182 67.0452C88.6053 66.8813 87.966 66.8402 87.3371 66.9244C86.7082 67.0087 86.1022 67.2165 85.554 67.536L81.123 70.098C80.5714 70.4083 80.088 70.8268 79.7019 71.3284C79.3158 71.83 79.0349 72.4043 78.876 73.017C78.5402 74.255 78.7062 75.5756 79.338 76.692C79.4146 76.7912 79.4562 76.9131 79.4562 77.0385C79.4562 77.1639 79.4146 77.2857 79.338 77.385C77.8508 79.2066 76.6666 81.2559 75.831 83.454C75.7883 83.5703 75.7111 83.6708 75.6098 83.7421C75.5085 83.8133 75.3879 83.8521 75.264 83.853C74.2354 83.8545 73.2344 84.1857 72.408 84.798L15.393 84.861ZM71.4 96.831H46.2L48.3 89.061H70.35V93.87C70.3634 94.9459 70.7326 95.987 71.4 96.831ZM39.228 101.031H76.608C77.088 101.999 77.6353 102.932 78.246 103.824H34.797C35.1935 102.99 35.818 102.285 36.5984 101.79C37.3789 101.296 38.2832 101.033 39.207 101.031H39.228ZM117.936 93.87C117.936 94.0371 117.87 94.1973 117.751 94.3155C117.633 94.4336 117.473 94.5 117.306 94.5C116.328 94.5024 115.373 94.8005 114.567 95.3552C113.762 95.9098 113.142 96.6951 112.791 97.608C112.12 99.3785 111.17 101.03 109.977 102.501C109.362 103.261 108.991 104.189 108.912 105.163C108.833 106.137 109.051 107.112 109.536 107.961C109.57 108.033 109.587 108.112 109.587 108.192C109.587 108.272 109.57 108.351 109.536 108.423C109.518 108.506 109.482 108.585 109.431 108.654C109.381 108.722 109.316 108.78 109.242 108.822L104.874 111.3C104.801 111.341 104.721 111.366 104.638 111.376C104.555 111.385 104.471 111.378 104.391 111.354C104.311 111.331 104.236 111.291 104.171 111.239C104.106 111.186 104.053 111.121 104.013 111.048C103.516 110.202 102.775 109.526 101.886 109.11C100.998 108.694 100.004 108.557 99.036 108.717C97.1873 109.032 95.2987 109.032 93.45 108.717C92.4798 108.559 91.4844 108.699 90.5956 109.119C89.7068 109.539 88.9666 110.219 88.473 111.069C88.3858 111.21 88.2482 111.312 88.0882 111.355C87.9283 111.398 87.758 111.378 87.612 111.3L83.181 108.738C83.1068 108.696 83.0422 108.638 82.9916 108.57C82.9409 108.501 82.9053 108.422 82.887 108.339C82.8532 108.267 82.8357 108.188 82.8357 108.108C82.8357 108.028 82.8532 107.949 82.887 107.877C83.3665 107.027 83.5807 106.052 83.5022 105.079C83.4236 104.107 83.0558 103.179 82.446 102.417C81.2425 100.95 80.285 99.2976 79.611 97.524C79.2588 96.6351 78.6485 95.8721 77.8588 95.3332C77.0691 94.7942 76.1361 94.504 75.18 94.5C75.0129 94.5 74.8527 94.4336 74.7345 94.3155C74.6164 94.1973 74.55 94.0371 74.55 93.87V88.746C74.5471 88.6625 74.5614 88.5792 74.592 88.5015C74.6226 88.4237 74.6689 88.3531 74.728 88.294C74.7871 88.2349 74.8577 88.1886 74.9355 88.158C75.0133 88.1273 75.0965 88.1131 75.18 88.116C76.1553 88.1122 77.1066 87.8133 77.9087 87.2586C78.7109 86.7038 79.3263 85.9192 79.674 85.008C80.3433 83.2321 81.3011 81.5788 82.509 80.115C83.1188 79.3527 83.4866 78.4255 83.5652 77.4525C83.6438 76.4795 83.4295 75.5053 82.95 74.655C82.9158 74.5791 82.8981 74.4968 82.8981 74.4135C82.8981 74.3302 82.9158 74.2479 82.95 74.172C82.9671 74.0908 83.0024 74.0145 83.0534 73.949C83.1043 73.8835 83.1695 73.8305 83.244 73.794L87.675 71.232C87.7781 71.2033 87.887 71.2033 87.99 71.232C88.0951 71.2333 88.1982 71.2609 88.2899 71.3123C88.3816 71.3636 88.459 71.4371 88.515 71.526C89.0108 72.3741 89.7513 73.0525 90.6395 73.4723C91.5277 73.892 92.522 74.0334 93.492 73.878C95.3407 73.5631 97.2293 73.5631 99.078 73.878C100.054 74.0099 101.048 73.8439 101.928 73.4017C102.809 72.9596 103.536 72.2619 104.013 71.4C104.054 71.3307 104.108 71.2703 104.173 71.2222C104.238 71.1741 104.311 71.1392 104.389 71.1197C104.467 71.1002 104.549 71.0963 104.628 71.1084C104.708 71.1205 104.784 71.1482 104.853 71.19L109.284 73.752C109.359 73.7885 109.424 73.8415 109.475 73.907C109.526 73.9725 109.561 74.0488 109.578 74.13C109.612 74.2059 109.63 74.2882 109.63 74.3715C109.63 74.4548 109.612 74.5371 109.578 74.613C109.095 75.4584 108.878 76.4301 108.957 77.4007C109.036 78.3714 109.406 79.2955 110.019 80.052C111.212 81.53 112.162 83.1889 112.833 84.966C113.164 85.8942 113.769 86.7002 114.567 87.2775C115.366 87.8549 116.321 88.1766 117.306 88.2C117.39 88.1971 117.473 88.2113 117.551 88.242C117.628 88.2726 117.699 88.3189 117.758 88.378C117.817 88.4371 117.863 88.5077 117.894 88.5855C117.925 88.6632 117.939 88.7465 117.936 88.83V93.87Z" fill="black"/>
<path d="M96.243 81.774C94.3573 81.774 92.514 82.3331 90.9462 83.3808C89.3783 84.4284 88.1563 85.9174 87.4347 87.6595C86.7131 89.4016 86.5243 91.3186 86.8922 93.168C87.2601 95.0174 88.1681 96.7162 89.5014 98.0495C90.8348 99.3829 92.5336 100.291 94.383 100.659C96.2324 101.027 98.1494 100.838 99.8915 100.116C101.634 99.3946 103.123 98.1727 104.17 96.6048C105.218 95.0369 105.777 93.1936 105.777 91.308C105.777 88.7794 104.773 86.3544 102.985 84.5664C101.197 82.7785 98.7716 81.774 96.243 81.774ZM96.243 96.642C95.188 96.642 94.1567 96.3292 93.2796 95.7431C92.4024 95.1569 91.7187 94.3239 91.315 93.3492C90.9113 92.3746 90.8057 91.3021 91.0115 90.2674C91.2173 89.2327 91.7253 88.2823 92.4713 87.5363C93.2173 86.7903 94.1677 86.2823 95.2024 86.0765C96.2371 85.8707 97.3096 85.9763 98.2842 86.38C99.2589 86.7837 100.092 87.4674 100.678 88.3446C101.264 89.2218 101.577 90.253 101.577 91.308C101.566 92.7154 100.999 94.0613 99.9999 95.0526C99.0008 96.0438 97.6504 96.6 96.243 96.6V96.642Z" fill="black"/>
</g>
<defs>
<clipPath id="clip0_21_68">
<rect width="126" height="126" fill="white"/>
</clipPath>
</defs>
</svg>
